<?xml version="1.0" standalone="no"?>
<!DOCTYPE svg PUBLIC "-//W3C//DTD SVG 20010904//EN"
 "http://www.w3.org/TR/2001/REC-SVG-20010904/DTD/svg10.dtd">
<svg version="1.0" xmlns="http://www.w3.org/2000/svg"
 width="980.000000pt" height="980.000000pt" viewBox="0 0 980.000000 980.000000"
 preserveAspectRatio="xMidYMid meet">
<metadata>
Created by potrace 1.11, written by Peter Selinger 2001-2013
</metadata>
<g transform="translate(0.000000,980.000000) scale(0.100000,-0.100000)"
fill="#000000" stroke="none">
<path d="M4750 9791 c-124 -40 -211 -134 -246 -265 -17 -62 -19 -296 -3 -382
15 -86 46 -175 79 -227 26 -42 29 -56 36 -174 l6 -128 -87 -23 c-333 -87 -600
-266 -699 -466 -71 -144 -70 -249 4 -511 27 -93 50 -211 70 -350 36 -257 67
-385 120 -492 60 -122 132 -173 244 -173 l36 0 0 -179 0 -178 -30 -59 c-67
-130 -75 -299 -35 -700 44 -442 70 -583 133 -718 l37 -81 -1 -170 c0 -156 -3
-177 -27 -250 -34 -104 -47 -192 -47 -335 0 -193 25 -323 96 -495 52 -128 67
-217 67 -405 1 -110 -5 -205 -17 -283 -10 -65 -16 -137 -14 -161 l3 -43 -160
-22 c-400 -56 -673 -171 -691 -292 -24 -158 330 -298 886 -350 166 -16 611
-16 780 0 472 44 810 154 874 285 16 32 17 44 7 76 -36 120 -301 228 -691 282
l-155 22 3 42 c2 24 -4 98 -13 166 -21 150 -24 386 -6 488 13 73 30 128 86
275 51 134 60 202 59 425 -1 158 -4 216 -17 255 -9 28 -24 75 -33 105 -13 42
-18 93 -18 220 l-1 165 37 81 c63 135 89 273 133 709 26 264 32 457 15 565 -6
36 -26 97 -45 136 l-35 72 0 181 0 181 60 0 c184 0 273 170 341 650 20 142 43
262 69 355 22 77 45 174 51 216 49 318 -207 595 -686 744 -66 20 -126 39 -133
41 -22 6 -5 251 20 286 34 49 66 131 83 213 20 95 24 328 6 398 -28 116 -87
196 -183 248 -62 34 -64 34 -203 36 -77 1 -151 -1 -165 -6z"/>
<path d="M6157 2030 c-213 -152 -634 -243 -1197 -257 -606 -15 -1142 83 -1407
257 l-32 22 -27 -29 c-94 -100 -135 -379 -74 -506 12 -26 21 -49 19 -51 -2 -1
-49 -17 -104 -35 -209 -67 -372 -168 -414 -253 -20 -43 -21 -57 -21 -401 l0
-357 63 -46 c234 -172 701 -301 1292 -356 192 -18 1049 -18 1240 0 625 59
1041 182 1279 378 34 28 77 73 94 99 l32 48 0 294 c0 339 1 335 -95 420 -68
61 -183 119 -335 170 -63 21 -116 38 -118 39 -1 1 10 23 25 49 20 37 27 66 31
124 5 96 -18 230 -52 303 -24 50 -103 139 -123 137 -5 0 -39 -22 -76 -49z"/>
</g>
</svg>
